<?xml version="1.0" encoding="UTF-8" standalone="no"?>
<!-- Created with Inkscape (http://www.inkscape.org/) -->

<svg
   xmlns:dc="http://purl.org/dc/elements/1.1/"
   xmlns:cc="http://creativecommons.org/ns#"
   xmlns:rdf="http://www.w3.org/1999/02/22-rdf-syntax-ns#"
   xmlns:svg="http://www.w3.org/2000/svg"
   xmlns="http://www.w3.org/2000/svg"
   xmlns:sodipodi="http://sodipodi.sourceforge.net/DTD/sodipodi-0.dtd"
   xmlns:inkscape="http://www.inkscape.org/namespaces/inkscape"
   width="300"
   height="300"
   viewBox="0 0 300 300"
   id="svg6628"
   version="1.1"
   inkscape:version="0.91 r13725"
   sodipodi:docname="icon.svg">
  <sodipodi:namedview
     id="base"
     pagecolor="#ffffff"
     bordercolor="#666666"
     borderopacity="1.0"
     inkscape:pageopacity="0.0"
     inkscape:pageshadow="2"
     inkscape:zoom="1.979899"
     inkscape:cx="190.25793"
     inkscape:cy="175.27528"
     inkscape:document-units="px"
     inkscape:current-layer="layer2"
     showgrid="false"
     units="px"
     inkscape:window-width="1600"
     inkscape:window-height="876"
     inkscape:window-x="0"
     inkscape:window-y="24"
     inkscape:window-maximized="1" />
  <defs
     id="defs6630" />
  <metadata
     id="metadata6633">
    <rdf:RDF>
      <cc:Work
         rdf:about="">
        <dc:format>image/svg+xml</dc:format>
        <dc:type
           rdf:resource="http://purl.org/dc/dcmitype/StillImage" />
        <dc:title></dc:title>
      </cc:Work>
    </rdf:RDF>
  </metadata>
  <g
     transform="translate(0,-752.36216)"
     id="layer1"
     inkscape:groupmode="layer"
     inkscape:label="back">
    <rect
       y="772.45862"
       x="200.40865"
       height="80"
       width="80"
       id="rect7176"
       style="opacity:1;fill:#1056a0;fill-opacity:1;stroke:none;stroke-width:35.43307114;stroke-miterlimit:4;stroke-dasharray:none;stroke-opacity:1" />
  </g>
  <g
     style="display:inline"
     inkscape:label="path"
     id="layer3"
     inkscape:groupmode="layer">
    <path
       transform="translate(0,-752.36216)"
       inkscape:connector-curvature="0"
       id="path7189"
       d="m 224.51879,841.34352 c -2.06393,-0.50634 -5.04244,-3.62601 -5.65432,-5.92228 -0.6419,-2.40894 0.0689,-5.4362 1.69943,-7.23794 0.63652,-0.70335 3.30814,-2.68151 5.93692,-4.39593 6.34772,-4.13978 10.62379,-7.63475 10.19329,-8.3313 -0.75565,-1.22269 -5.65922,-1.41039 -10.07737,-0.38576 -7.91895,1.83653 -13.65517,1.01761 -14.93356,-2.13192 -2.07236,-5.10565 -1.62293,-8.90476 1.38798,-11.73288 1.31316,-1.23345 2.4598,-1.63074 4.57171,-1.58403 3.74169,0.0828 6.36734,1.53539 11.86938,6.56672 2.51986,2.30426 5.58707,4.55899 6.81604,5.0105 l 2.23448,0.82094 -0.40113,-3.38698 c -0.22063,-1.86286 -1.52031,-5.99268 -2.88817,-9.17741 -2.74317,-6.38674 -3.1227,-10.03861 -1.328,-12.77769 3.41836,-5.21707 12.59306,-3.94892 14.56053,2.0126 0.68522,2.07622 0.43363,3.12996 -2.65597,11.12408 -1.87709,4.85683 -3.41289,9.57443 -3.41289,10.48354 0,1.57088 0.10644,1.61389 2.14318,0.86646 1.17873,-0.43257 4.20487,-2.67178 6.72472,-4.97604 5.50206,-5.03133 8.1277,-6.48396 11.86939,-6.56672 2.1119,-0.0467 3.25855,0.35058 4.57171,1.58403 3.01091,2.82812 3.46034,6.62723 1.38798,11.73288 -1.27838,3.14953 -7.01462,3.96845 -14.93357,2.13192 -4.39403,-1.01905 -9.32088,-0.83826 -10.06726,0.36941 -0.48948,0.79198 3.53549,4.14672 9.78511,8.15566 6.38806,4.09779 8.12751,6.2366 8.12751,9.99351 0,5.25466 -5.49685,9.19913 -10.51267,7.54375 -3.36665,-1.11109 -5.31393,-4.46515 -7.39398,-12.73562 -0.96814,-3.84936 -2.25667,-7.75648 -2.86342,-8.68248 l -1.10317,-1.68365 -0.90656,1.73024 c -0.49862,0.95164 -1.69714,4.70662 -2.6634,8.34439 -1.96278,7.38955 -3.73112,11.33561 -5.49353,12.25895 -1.67152,0.87573 -4.99753,1.36983 -6.59039,0.97905 z"
       style="fill:#000000" />
    <path
       style="fill:#000000"
       d="m 74.51879,238.98136 c -2.06393,-0.50634 -5.04244,-3.62601 -5.65432,-5.92228 -0.6419,-2.40894 0.0689,-5.4362 1.69943,-7.23794 0.63652,-0.70335 3.30814,-2.68151 5.93692,-4.39593 6.34772,-4.13978 10.62379,-7.63475 10.19329,-8.3313 -0.75565,-1.22269 -5.65922,-1.41039 -10.07737,-0.38576 -7.91895,1.83653 -13.65517,1.01761 -14.93356,-2.13192 -2.07236,-5.10565 -1.62293,-8.90476 1.38798,-11.73288 1.31316,-1.23345 2.4598,-1.63074 4.57171,-1.58403 3.74169,0.0828 6.36734,1.53539 11.86938,6.56672 2.51986,2.30426 5.58707,4.55899 6.81604,5.0105 l 2.23448,0.82094 -0.40113,-3.38698 c -0.22063,-1.86286 -1.52031,-5.99268 -2.88817,-9.17741 -2.74317,-6.38674 -3.1227,-10.03861 -1.328,-12.77769 3.41836,-5.21707 12.59306,-3.94892 14.56053,2.0126 0.68522,2.07622 0.43363,3.12996 -2.65597,11.12408 -1.87709,4.85683 -3.41289,9.57443 -3.41289,10.48354 0,1.57088 0.10644,1.61389 2.14318,0.86646 1.17873,-0.43257 4.20487,-2.67178 6.72472,-4.97604 5.50206,-5.03133 8.1277,-6.48396 11.86939,-6.56672 2.1119,-0.0467 3.25855,0.35058 4.57171,1.58403 3.01091,2.82812 3.46034,6.62723 1.38798,11.73288 -1.27838,3.14953 -7.01462,3.96845 -14.93357,2.13192 -4.39403,-1.01905 -9.32088,-0.83826 -10.06726,0.36941 -0.48948,0.79198 3.53549,4.14672 9.78511,8.15566 6.38806,4.09779 8.12751,6.2366 8.12751,9.99351 0,5.25466 -5.49685,9.19913 -10.51267,7.54375 -3.36665,-1.11109 -5.31393,-4.46515 -7.39398,-12.73562 -0.96814,-3.84936 -2.25667,-7.75648 -2.86342,-8.68248 l -1.10317,-1.68365 -0.90656,1.73024 c -0.49862,0.95164 -1.69714,4.70662 -2.6634,8.34439 -1.96278,7.38955 -3.73112,11.33561 -5.49353,12.25895 -1.67152,0.87573 -4.99753,1.36983 -6.59039,0.97905 z"
       id="path7198"
       inkscape:connector-curvature="0" />
    <path
       style="fill:#000000;fill-opacity:0.39215687"
       d="M 240.64453 31.048828 C 238.76846 31.012861 236.90314 31.541421 235.44531 32.685547 C 235.16059 32.909 234.89109 33.154784 234.64062 33.425781 C 234.63306 33.433905 234.62472 33.441052 234.61719 33.449219 C 234.60704 33.460065 234.59603 33.469545 234.58594 33.480469 C 234.56631 33.501318 234.5448 33.519877 234.52539 33.541016 C 234.50698 33.560576 234.48891 33.579794 234.4707 33.599609 C 234.44745 33.62416 234.42138 33.644967 234.39844 33.669922 C 234.36624 33.703718 234.33238 33.734964 234.30078 33.769531 C 234.27112 33.800664 234.23814 33.827588 234.20898 33.859375 C 234.16898 33.900991 234.12698 33.939626 234.08789 33.982422 C 234.04432 34.027691 233.99952 34.07052 233.95703 34.117188 C 233.9137 34.162111 233.86648 34.201743 233.82422 34.248047 C 233.77011 34.303688 233.71457 34.356285 233.66211 34.414062 C 233.60861 34.469058 233.55189 34.519088 233.5 34.576172 C 233.44116 34.636266 233.37918 34.691301 233.32227 34.753906 C 233.25493 34.822311 233.18396 34.885353 233.11914 34.957031 C 233.0521 35.025104 232.98251 35.088841 232.91797 35.160156 C 232.84487 35.233935 232.76937 35.303245 232.69922 35.380859 C 232.62209 35.458352 232.54066 35.529583 232.4668 35.611328 C 232.38171 35.696399 232.29402 35.776963 232.21289 35.867188 C 232.12775 35.952247 232.04017 36.03283 231.95898 36.123047 C 231.86741 36.213973 231.77257 36.299625 231.68555 36.396484 C 231.59116 36.489822 231.49387 36.578116 231.4043 36.677734 C 231.3019 36.778387 231.19637 36.874415 231.09961 36.982422 C 230.99304 37.086989 230.88564 37.188259 230.78516 37.300781 C 230.67754 37.406081 230.56627 37.50575 230.46484 37.619141 C 230.34773 37.732999 230.22897 37.843407 230.11914 37.966797 C 230.00359 38.079038 229.88581 38.187082 229.77734 38.308594 C 229.65158 38.429735 229.52369 38.547642 229.40625 38.679688 C 229.27678 38.804196 229.14605 38.926452 229.02539 39.0625 C 228.89495 39.187619 228.7641 39.310459 228.64258 39.447266 C 228.50313 39.580052 228.36175 39.709407 228.23242 39.855469 C 228.08945 39.991313 227.94681 40.125616 227.81445 40.275391 C 227.66803 40.414037 227.52205 40.551862 227.38672 40.705078 C 227.23439 40.848573 227.08179 40.991196 226.94141 41.150391 C 226.78363 41.298489 226.62742 41.446437 226.48242 41.611328 C 226.32351 41.76004 226.16554 41.908514 226.01953 42.074219 C 225.85135 42.230496 225.68507 42.3873 225.53125 42.5625 C 225.36013 42.721176 225.19143 42.882315 225.03516 43.060547 C 224.85812 43.224051 224.68464 43.389851 224.52344 43.574219 C 224.34459 43.738893 224.16861 43.905884 224.00586 44.091797 C 223.81856 44.26321 223.63458 44.438219 223.46484 44.632812 C 223.27568 44.805582 223.09121 44.983313 222.91992 45.179688 C 222.7225 45.358982 222.52961 45.543159 222.35156 45.748047 C 222.15265 45.928401 221.95857 46.114011 221.7793 46.320312 C 221.57367 46.505745 221.3742 46.699068 221.18945 46.912109 C 220.98128 47.099192 220.78061 47.294466 220.59375 47.509766 C 220.53742 47.560078 220.48063 47.609751 220.42578 47.662109 C 219.5247 47.411365 218.61944 47.287372 217.63672 47.265625 C 215.52481 47.218915 214.37761 47.616159 213.06445 48.849609 C 213.05832 48.855373 213.05299 48.861416 213.04688 48.867188 C 213.04617 48.867846 213.04562 48.868482 213.04492 48.869141 C 213.0347 48.878747 213.02579 48.888809 213.01562 48.898438 C 213.01422 48.899753 213.01312 48.901027 213.01172 48.902344 C 212.99567 48.917422 212.9827 48.934085 212.9668 48.949219 C 212.95443 48.961157 212.94196 48.972403 212.92969 48.984375 C 212.9233 48.99051 212.91847 48.997762 212.91211 49.003906 C 212.91033 49.005578 212.90803 49.006137 212.90625 49.007812 C 212.88332 49.029346 212.86443 49.052573 212.8418 49.074219 C 212.83932 49.076541 212.83646 49.07775 212.83398 49.080078 C 212.80598 49.106382 212.78147 49.133684 212.75391 49.160156 C 212.75181 49.162123 212.75015 49.164045 212.74805 49.166016 C 212.71691 49.195262 212.69074 49.226405 212.66016 49.255859 C 212.65698 49.258836 212.65357 49.260685 212.65039 49.263672 C 212.60335 49.307859 212.56142 49.353775 212.51562 49.398438 C 212.48332 49.428967 212.45553 49.461432 212.42383 49.492188 C 212.42033 49.495463 212.41756 49.498666 212.41406 49.501953 C 212.3741 49.539487 212.33984 49.579311 212.30078 49.617188 C 212.29233 49.625067 212.28385 49.630723 212.27539 49.638672 C 212.22732 49.683822 212.18543 49.731697 212.13867 49.777344 C 212.13341 49.782268 212.12832 49.786065 212.12305 49.791016 C 212.07104 49.839867 212.02704 49.891974 211.97656 49.941406 C 211.97091 49.946689 211.96464 49.949764 211.95898 49.955078 C 211.90253 50.008105 211.85348 50.063476 211.79883 50.117188 C 211.79286 50.122761 211.78722 50.127205 211.78125 50.132812 C 211.71658 50.193552 211.65996 50.256721 211.59766 50.318359 C 211.59555 50.320331 211.5939 50.322243 211.5918 50.324219 C 211.52998 50.382282 211.47567 50.443068 211.41602 50.501953 C 211.40617 50.511125 211.39658 50.518078 211.38672 50.527344 C 211.31671 50.593106 211.25474 50.661699 211.1875 50.728516 C 211.18152 50.734102 211.17591 50.73852 211.16992 50.744141 C 211.09697 50.812667 211.03284 50.885407 210.96289 50.955078 C 210.95514 50.96231 210.94721 50.967319 210.93945 50.974609 C 210.86022 51.049035 210.79053 51.127348 210.71484 51.203125 C 210.70851 51.209046 210.70166 51.21279 210.69531 51.21875 C 210.61423 51.294915 210.54222 51.373592 210.46484 51.451172 C 210.45607 51.459352 210.44824 51.466354 210.43945 51.474609 C 210.35202 51.556734 210.27452 51.642792 210.19141 51.726562 C 210.18436 51.733146 210.17698 51.737509 210.16992 51.744141 C 210.0806 51.828037 210.00083 51.916339 209.91602 52.001953 C 209.90617 52.011125 209.89658 52.018078 209.88672 52.027344 C 209.78886 52.119257 209.70182 52.214617 209.60938 52.308594 C 209.60341 52.314169 209.59777 52.318609 209.5918 52.324219 C 209.49583 52.414361 209.40912 52.507483 209.31836 52.599609 C 209.30575 52.611328 209.29389 52.62094 209.28125 52.632812 C 209.17861 52.729225 209.08693 52.829051 208.99023 52.927734 C 208.97971 52.937529 208.96953 52.945176 208.95898 52.955078 C 208.85223 53.055347 208.75656 53.158994 208.65625 53.261719 C 208.64503 53.272155 208.63429 53.280457 208.62305 53.291016 C 208.51288 53.394498 208.41386 53.501323 208.31055 53.607422 C 208.29861 53.618525 208.28736 53.62743 208.27539 53.638672 C 208.15676 53.750105 208.04818 53.866 207.9375 53.980469 C 207.92944 53.987988 207.92213 53.994371 207.91406 54.001953 C 207.79316 54.115514 207.68296 54.232895 207.57031 54.349609 C 207.55979 54.359407 207.54961 54.367048 207.53906 54.376953 C 207.41816 54.490514 207.30796 54.607895 207.19531 54.724609 C 207.18021 54.738616 207.16554 54.749444 207.15039 54.763672 C 207.01914 54.886954 206.89886 55.015578 206.77734 55.142578 C 206.7682 55.151104 206.75916 55.157408 206.75 55.166016 C 206.61954 55.288559 206.49975 55.414799 206.37891 55.541016 C 206.36384 55.55499 206.3491 55.565882 206.33398 55.580078 C 206.19815 55.707665 206.07463 55.839133 205.94922 55.970703 C 205.93484 55.984041 205.92066 55.994274 205.90625 56.007812 C 205.76255 56.142793 205.63204 56.282434 205.5 56.421875 C 205.4891 56.432015 205.47771 56.438963 205.4668 56.449219 C 205.32404 56.58331 205.19179 56.720882 205.06055 56.859375 C 205.04409 56.874621 205.02823 56.886834 205.01172 56.902344 C 204.86357 57.0415 204.72755 57.184227 204.5918 57.328125 C 204.57599 57.342769 204.56077 57.354254 204.54492 57.369141 C 204.38884 57.515744 204.24388 57.66649 204.10156 57.818359 C 204.08928 57.82978 204.07677 57.838042 204.06445 57.849609 C 203.90399 58.000334 203.7553 58.154255 203.60938 58.310547 C 203.59676 58.322269 203.58491 58.331873 203.57227 58.34375 C 203.41209 58.494203 203.26287 58.648688 203.11719 58.804688 C 203.09966 58.820907 203.08204 58.833091 203.06445 58.849609 C 202.89988 59.004191 202.74693 59.161828 202.59766 59.322266 C 202.57976 59.338817 202.56287 59.352278 202.54492 59.369141 C 202.37556 59.528221 202.21761 59.690184 202.06445 59.855469 C 202.0466 59.871982 202.02963 59.88552 202.01172 59.902344 C 201.83927 60.064319 201.67908 60.230029 201.52344 60.398438 C 201.50448 60.415961 201.48582 60.429393 201.4668 60.447266 C 201.28952 60.613777 201.12241 60.785673 200.96289 60.958984 C 200.94397 60.976469 200.92523 60.98998 200.90625 61.007812 C 200.72423 61.178786 200.55393 61.353105 200.39062 61.53125 C 200.37171 61.548734 200.35297 61.562246 200.33398 61.580078 C 200.1458 61.756836 199.96701 61.938622 199.79883 62.123047 C 199.78236 62.138298 199.76652 62.150501 199.75 62.166016 C 199.56182 62.342773 199.38107 62.524559 199.21289 62.708984 C 199.19184 62.728402 199.17152 62.743823 199.15039 62.763672 C 198.95762 62.944743 198.7753 63.129239 198.60352 63.318359 C 198.58177 63.338406 198.5609 63.354492 198.53906 63.375 C 198.34629 63.556073 198.16397 63.742519 197.99219 63.931641 C 197.9659 63.955778 197.94048 63.975189 197.91406 64 C 197.7188 64.18341 197.53506 64.372784 197.36133 64.564453 C 197.33258 64.590787 197.30428 64.611533 197.27539 64.638672 C 197.07804 64.824043 196.8941 65.013222 196.71875 65.207031 C 196.68723 65.235836 196.6567 65.259289 196.625 65.289062 C 196.42335 65.478466 196.23532 65.674833 196.05664 65.873047 C 196.02475 65.90218 195.99301 65.924953 195.96094 65.955078 C 195.75789 66.145801 195.56843 66.341358 195.38867 66.541016 C 195.35339 66.573153 195.31871 66.599461 195.2832 66.632812 C 195.07945 66.824195 194.88929 67.020324 194.70898 67.220703 C 194.6698 67.256267 194.63126 67.285202 194.5918 67.322266 C 194.38415 67.517304 194.1911 67.719444 194.00781 67.923828 C 193.96793 67.959997 193.92883 67.989622 193.88867 68.027344 C 193.68033 68.223042 193.48656 68.423799 193.30273 68.628906 C 193.25844 68.668919 193.21456 68.702211 193.16992 68.744141 C 192.95768 68.943495 192.76297 69.148301 192.57617 69.357422 C 192.53108 69.39812 192.48685 69.431925 192.44141 69.474609 C 192.22955 69.673605 192.03221 69.87721 191.8457 70.085938 C 191.79578 70.130796 191.74762 70.169502 191.69727 70.216797 C 191.48113 70.419807 191.28155 70.630609 191.0918 70.84375 C 191.0415 70.888924 190.99213 70.926963 190.94141 70.974609 C 190.72457 71.178279 190.52426 71.387696 190.33398 71.601562 C 190.27931 71.65047 190.2251 71.692309 190.16992 71.744141 C 189.9499 71.950807 189.74932 72.163692 189.55664 72.380859 C 189.50057 72.430946 189.44527 72.474182 189.38867 72.527344 C 189.16833 72.734311 188.96441 72.946563 188.77148 73.164062 C 188.71117 73.217722 188.65271 73.265047 188.5918 73.322266 C 188.36967 73.530911 188.16497 73.747447 187.9707 73.966797 C 187.90796 74.02249 187.8466 74.071313 187.7832 74.130859 C 187.55858 74.341841 187.35237 74.561274 187.15625 74.783203 C 187.09107 74.840919 187.02681 74.89125 186.96094 74.953125 C 186.73421 75.166086 186.52582 75.387213 186.32812 75.611328 C 186.2602 75.671319 186.19368 75.724553 186.125 75.789062 C 185.89508 76.00502 185.68444 76.229601 185.48438 76.457031 C 185.41486 76.518327 185.34568 76.572644 185.27539 76.638672 C 185.04439 76.855647 184.83563 77.080036 184.63477 77.308594 C 184.56129 77.373129 184.4884 77.430177 184.41406 77.5 C 184.18035 77.719527 183.96849 77.94635 183.76562 78.177734 C 183.69026 78.243806 183.61533 78.303365 183.53906 78.375 C 183.30216 78.597517 183.08802 78.827797 182.88281 79.0625 C 182.80591 79.129822 182.73019 79.190556 182.65234 79.263672 C 182.41535 79.486282 182.19942 79.716366 181.99414 79.951172 C 181.91275 80.0221 181.83242 80.086643 181.75 80.164062 C 181.5109 80.388651 181.29275 80.622371 181.08594 80.859375 C 181.00249 80.931946 180.92046 80.998729 180.83594 81.078125 C 180.59434 81.305051 180.37465 81.541648 180.16602 81.78125 C 180.08014 81.855746 179.99521 81.924136 179.9082 82.005859 C 179.66342 82.235782 179.44141 82.475812 179.23047 82.71875 C 179.14306 82.794464 179.05538 82.864063 178.9668 82.947266 C 178.72175 83.177438 178.50215 83.416939 178.29102 83.660156 C 178.19893 83.73954 178.10704 83.812694 178.01367 83.900391 C 177.76608 84.132951 177.5411 84.375215 177.32812 84.621094 C 177.23435 84.701793 177.14197 84.777867 177.04688 84.867188 C 176.7968 85.102085 176.57023 85.347216 176.35547 85.595703 C 176.25927 85.678279 176.16398 85.756008 176.06641 85.847656 C 175.81314 86.08555 175.58423 86.334103 175.36719 86.585938 C 175.26948 86.669682 175.17139 86.748692 175.07227 86.841797 C 174.81913 87.079567 174.59195 87.326428 174.375 87.578125 C 174.27228 87.665708 174.17066 87.749729 174.06641 87.847656 C 173.81033 88.088189 173.57842 88.338964 173.35938 88.59375 C 173.25528 88.682372 173.15253 88.767943 173.04688 88.867188 C 172.78831 89.110057 172.5548 89.36369 172.33398 89.621094 C 172.22747 89.711545 172.12181 89.798818 172.01367 89.900391 C 171.75191 90.146257 171.51603 90.403299 171.29297 90.664062 C 171.18497 90.755635 171.07646 90.844259 170.9668 90.947266 C 170.70434 91.193791 170.46965 91.449433 170.24609 91.710938 C 170.13375 91.805758 170.02232 91.898666 169.9082 92.005859 C 169.64411 92.253918 169.4083 92.512165 169.18359 92.775391 C 169.06814 92.872506 168.95324 92.967945 168.83594 93.078125 C 168.56712 93.330619 168.32566 93.593116 168.09766 93.861328 C 167.98247 93.958251 167.86703 94.054134 167.75 94.164062 C 167.48116 94.416581 167.2417 94.679026 167.01367 94.947266 C 166.89375 95.047656 166.77423 95.147235 166.65234 95.261719 C 166.38102 95.516575 166.13796 95.783816 165.9082 96.054688 C 165.78647 96.156394 165.66475 96.258772 165.54102 96.375 C 165.26758 96.631835 165.02223 96.898773 164.79102 97.171875 C 164.66656 97.275555 164.54255 97.381143 164.41602 97.5 C 164.1408 97.758512 163.89456 98.02774 163.66211 98.302734 C 163.53462 98.408585 163.40699 98.514945 163.27734 98.636719 C 162.99791 98.899188 162.74706 99.173661 162.51172 99.453125 C 162.38391 99.559203 162.25692 99.666982 162.12695 99.789062 C 161.84573 100.05321 161.59398 100.32801 161.35742 100.60938 C 161.22645 100.71771 161.09416 100.82799 160.96094 100.95312 C 160.6785 101.21841 160.42684 101.49469 160.18945 101.77734 C 160.05507 101.88808 159.91992 102.00244 159.7832 102.13086 C 159.4995 102.39734 159.24802 102.67498 159.00977 102.95898 C 158.87198 103.07209 158.73396 103.18861 158.59375 103.32031 C 158.30615 103.59045 158.04949 103.87396 157.80859 104.16211 C 157.67007 104.27573 157.52964 104.39298 157.38867 104.52539 C 157.09897 104.79751 156.84192 105.0807 156.59961 105.37109 C 156.45835 105.4866 156.31564 105.60715 156.17188 105.74219 C 155.88097 106.01543 155.62202 106.30012 155.37891 106.5918 C 155.23424 106.70964 155.08866 106.83434 154.94141 106.97266 C 154.64921 107.24711 154.39047 107.53312 154.14648 107.82617 C 153.99839 107.94634 153.84999 108.07322 153.69922 108.21484 C 153.40281 108.49326 153.13742 108.78448 152.89062 109.08203 C 152.74218 109.20244 152.59254 109.3307 152.44141 109.47266 C 152.14321 109.75275 151.87884 110.04429 151.63086 110.34375 C 151.47932 110.46623 151.32618 110.59725 151.17188 110.74219 C 150.8725 111.02339 150.60619 111.31646 150.35742 111.61719 C 150.20248 111.74193 150.04841 111.87718 149.89062 112.02539 C 149.58994 112.30782 149.3219 112.60217 149.07227 112.9043 C 148.91385 113.03133 148.75509 113.16877 148.59375 113.32031 C 148.29166 113.60406 148.02009 113.90144 147.76953 114.20508 C 147.60874 114.33366 147.44893 114.47703 147.28516 114.63086 C 146.97956 114.9179 146.70599 115.21604 146.45312 115.52344 C 146.29051 115.6532 146.12853 115.79754 145.96289 115.95312 C 145.6541 116.24317 145.378 116.54464 145.12305 116.85547 C 144.95854 116.98645 144.79453 117.1297 144.62695 117.28711 C 144.31389 117.58117 144.03507 117.88965 143.77734 118.20508 C 143.61242 118.33633 143.44535 118.47891 143.27734 118.63672 C 142.96218 118.93275 142.68291 119.2409 142.42383 119.55859 C 142.25556 119.69199 142.08744 119.83703 141.91602 119.99805 C 141.59862 120.29617 141.31715 120.60764 141.05664 120.92773 C 140.88577 121.06277 140.7151 121.20953 140.54102 121.37305 C 140.21936 121.67518 139.93512 121.9917 139.67188 122.31641 C 139.50056 122.45173 139.32884 122.59777 139.1543 122.76172 C 138.82994 123.06638 138.54034 123.38332 138.27539 123.71094 C 138.10186 123.84765 137.92876 123.99603 137.75195 124.16211 C 137.42479 124.46941 137.13196 124.79043 136.86523 125.12109 C 136.69023 125.25873 136.5162 125.40869 136.33789 125.57617 C 136.00753 125.88647 135.7121 126.2108 135.44336 126.54492 C 135.26646 126.68373 135.0904 126.8346 134.91016 127.00391 C 134.57553 127.31822 134.27727 127.64757 134.00586 127.98633 C 133.82857 128.12538 133.6494 128.27563 133.46875 128.44531 C 133.13333 128.76037 132.83635 129.09007 132.56445 129.42969 C 132.38261 129.57154 132.20092 129.72439 132.01562 129.89844 C 131.6757 130.21773 131.37234 130.55196 131.09766 130.89648 C 130.91581 131.03834 130.73412 131.19119 130.54883 131.36523 C 130.20571 131.68752 129.89969 132.02504 129.62305 132.37305 C 129.43931 132.51605 129.25559 132.66984 129.06836 132.8457 C 128.72135 133.17165 128.41184 133.51298 128.13281 133.86523 C 127.94838 134.00866 127.76215 134.16332 127.57422 134.33984 C 127.22645 134.6665 126.91816 135.00825 126.63867 135.36133 C 126.44967 135.5075 126.26095 135.6648 126.06836 135.8457 C 125.71605 136.17662 125.40137 136.52281 125.11914 136.88086 C 124.93014 137.02703 124.74142 137.18433 124.54883 137.36523 C 124.19333 137.69915 123.87594 138.04862 123.5918 138.41016 C 123.4009 138.55745 123.21015 138.71572 123.01562 138.89844 C 122.65728 139.23502 122.33663 139.58651 122.05078 139.95117 C 121.85841 140.09934 121.66673 140.26119 121.4707 140.44531 C 121.10812 140.78588 120.78445 141.14045 120.49609 141.50977 C 120.30262 141.65858 120.1073 141.81873 119.91016 142.00391 C 119.54615 142.34582 119.2228 142.70333 118.93359 143.07422 C 118.73676 143.225 118.53846 143.38777 118.33789 143.57617 C 117.9707 143.92107 117.64459 144.28186 117.35352 144.65625 C 117.15478 144.80813 116.95641 144.9719 116.75391 145.16211 C 116.38284 145.51065 116.05114 145.87329 115.75781 146.25195 C 115.55784 146.40455 115.35806 146.56837 115.1543 146.75977 C 114.78042 147.11094 114.44535 147.47761 114.15039 147.85938 C 113.94895 148.01281 113.74823 148.17829 113.54297 148.37109 C 113.16661 148.72461 112.82765 149.09595 112.53125 149.48047 C 112.3279 149.63499 112.12516 149.80148 111.91797 149.99609 C 111.53863 150.3524 111.20044 150.72548 110.90234 151.11328 C 110.69593 151.26954 110.48961 151.43722 110.2793 151.63477 C 109.89854 151.9924 109.56063 152.36649 109.26172 152.75586 C 109.05192 152.91401 108.84265 153.08634 108.62891 153.28711 C 108.24448 153.6482 107.90256 154.02452 107.60156 154.41797 C 107.39038 154.57689 107.17999 154.74909 106.96484 154.95117 C 106.57858 155.31399 106.23563 155.69241 105.93359 156.08789 C 105.71924 156.24856 105.50547 156.4238 105.28711 156.62891 C 104.89829 156.99412 104.55347 157.37512 104.25 157.77344 C 104.033 157.93555 103.81675 158.11073 103.5957 158.31836 C 103.20502 158.68533 102.8592 159.07031 102.55469 159.4707 C 102.33503 159.63425 102.1163 159.81329 101.89258 160.02344 C 101.49825 160.39383 101.1503 160.78109 100.84375 161.18555 C 100.6223 161.35005 100.39937 161.52838 100.17383 161.74023 C 99.778077 162.11196 99.430383 162.50021 99.123047 162.90625 C 98.898081 163.07262 98.674405 163.25552 98.445312 163.4707 C 98.047013 163.84482 97.695461 164.23565 97.386719 164.64453 C 97.159095 164.8123 96.932947 164.99518 96.701172 165.21289 C 96.300564 165.58918 95.948682 165.98503 95.638672 166.39648 C 95.4087 166.56547 95.179457 166.75077 94.945312 166.9707 C 94.542626 167.34894 94.1881 167.74442 93.876953 168.1582 C 93.644008 168.32872 93.412922 168.51749 93.175781 168.74023 C 92.770546 169.12087 92.414096 169.51892 92.101562 169.93555 C 91.865952 170.10742 91.632402 170.29622 91.392578 170.52148 C 90.984306 170.90497 90.626677 171.30849 90.3125 171.72852 C 90.075115 171.90129 89.837313 172.09142 89.595703 172.31836 C 89.186353 172.70286 88.830382 173.10806 88.515625 173.5293 C 88.273812 173.70428 88.03317 173.89583 87.787109 174.12695 C 87.374441 174.51457 87.013803 174.9227 86.697266 175.34766 C 86.45396 175.52338 86.212403 175.71669 85.964844 175.94922 C 85.549621 176.33923 85.187039 176.74991 84.869141 177.17773 C 84.623757 177.35448 84.37855 177.55067 84.128906 177.78516 C 83.712616 178.17617 83.351668 178.58855 83.033203 179.01758 C 82.783364 179.19648 82.535359 179.39413 82.28125 179.63281 C 81.861309 180.02726 81.496174 180.44382 81.175781 180.87695 C 80.92462 181.05649 80.675355 181.25617 80.419922 181.49609 C 79.998142 181.89227 79.631905 182.30894 79.310547 182.74414 C 79.056093 182.92524 78.803648 183.12807 78.544922 183.37109 C 78.120594 183.76966 77.752378 184.18888 77.429688 184.62695 C 77.172548 184.80932 76.917659 185.01227 76.65625 185.25781 C 76.229261 185.65888 75.85923 186.08236 75.535156 186.52344 C 75.275955 186.70676 75.017373 186.91268 74.753906 187.16016 C 74.32448 187.56351 73.954239 187.98781 73.628906 188.43164 C 73.367019 188.6162 73.105989 188.82423 72.839844 189.07422 C 72.408544 189.47933 72.037234 189.90757 71.710938 190.35352 C 71.445926 190.5395 71.181366 190.74904 70.912109 191.00195 C 70.47797 191.40974 70.105094 191.8399 69.777344 192.28906 C 69.509749 192.47621 69.244483 192.68608 68.972656 192.94141 C 68.536588 193.351 68.160763 193.78498 67.832031 194.23633 C 67.561633 194.42472 67.29219 194.63854 67.017578 194.89648 C 66.578348 195.30905 66.201426 195.74429 65.871094 196.19922 C 65.598751 196.38847 65.327323 196.60353 65.050781 196.86328 C 62.039871 199.6914 61.591702 203.49005 63.664062 208.5957 C 64.942453 211.74523 70.678706 212.56505 78.597656 210.72852 C 81.321064 210.09692 84.221425 209.92763 86.228516 210.17578 C 86.17841 210.22476 86.073969 210.30693 86.037109 210.34766 C 85.81769 210.59012 85.616694 210.85827 85.431641 211.14062 C 84.847904 211.59874 84.359719 212.00286 84.148438 212.23633 C 83.927767 212.48017 83.728875 212.74904 83.542969 213.0332 C 82.953744 213.49522 82.460643 213.9018 82.248047 214.13672 C 82.026201 214.38186 81.823422 214.65358 81.636719 214.93945 C 81.043353 215.40441 80.547571 215.81672 80.333984 216.05273 C 80.110842 216.29931 79.908285 216.57162 79.720703 216.85938 C 79.122013 217.32812 78.621106 217.7411 78.40625 217.97852 C 78.1816 218.22675 77.977662 218.50303 77.789062 218.79297 C 77.185621 219.26508 76.680829 219.68126 76.464844 219.91992 C 76.239621 220.16879 76.036642 220.44555 75.847656 220.73633 C 75.238405 221.21256 74.729081 221.63286 74.511719 221.87305 C 74.284264 222.12438 74.079156 222.40519 73.888672 222.69922 C 73.276146 223.17777 72.763059 223.60076 72.544922 223.8418 C 70.914392 225.64354 70.20185 228.66918 70.84375 231.07812 C 71.45563 233.37439 74.434117 236.49561 76.498047 237.00195 C 78.090907 237.39273 81.418324 236.89721 83.089844 236.02148 C 83.64902 235.72853 84.209 235.09465 84.775391 234.17969 C 84.867612 234.13755 84.972392 234.09883 85.056641 234.05469 C 85.613829 233.76277 86.171998 233.13212 86.736328 232.22266 C 86.825828 232.18162 86.92782 232.14449 87.009766 232.10156 C 87.565052 231.81064 88.123187 231.18351 88.685547 230.2793 C 88.77239 230.23934 88.871482 230.20191 88.951172 230.16016 C 89.504203 229.87042 90.057164 229.24566 90.617188 228.34766 C 90.702374 228.30837 90.800629 228.27343 90.878906 228.23242 C 91.429659 227.94388 91.981398 227.3234 92.539062 226.43164 C 92.621709 226.3934 92.716862 226.35823 92.792969 226.31836 C 93.341734 226.03086 93.89166 225.41367 94.447266 224.52734 C 94.527218 224.49021 94.619565 224.45663 94.693359 224.41797 C 95.097801 224.20608 95.502812 223.81464 95.910156 223.2793 C 95.978655 223.5407 96.053291 223.79287 96.119141 224.05469 C 98.199191 232.32516 100.14702 235.67993 103.51367 236.79102 C 106.96444 237.92988 110.642 236.4176 112.60156 233.65234 C 113.35595 233.11348 114.02116 232.45265 114.55859 231.69727 C 115.3105 231.15981 115.9754 230.50073 116.51172 229.74805 C 117.25389 229.21548 117.90787 228.56313 118.43945 227.82031 C 118.43945 227.82031 118.44141 227.81836 118.44141 227.81836 C 119.18077 227.28744 119.83295 226.63815 120.36328 225.89844 C 121.09524 225.37157 121.74075 224.728 122.26758 223.99609 C 122.99748 223.47035 123.64213 222.8274 124.16797 222.09766 C 124.89156 221.57429 125.5324 220.93718 126.05469 220.21289 C 126.7691 219.69421 127.40225 219.06466 127.91992 218.34961 C 128.63081 217.83313 129.25932 217.20521 129.77539 216.49414 C 130.48082 215.98041 131.10393 215.358 131.61719 214.65234 C 132.3172 214.14149 132.93674 213.52435 133.44727 212.82422 C 134.14143 212.31642 134.75616 211.70401 135.26367 211.00977 C 135.95092 210.50584 136.5604 209.89991 137.06445 209.21289 C 137.7481 208.71106 138.3532 208.10505 138.85547 207.42188 C 139.53471 206.92193 140.13696 206.32181 140.63672 205.64258 C 141.30841 205.14633 141.90475 204.5509 142.40039 203.87891 C 143.06474 203.38691 143.65459 202.79902 144.14648 202.13477 C 144.80993 201.6431 145.39928 201.0561 145.89062 200.39258 C 146.54438 199.9058 147.12532 199.32604 147.61133 198.67188 C 148.26222 198.18657 148.84369 197.61036 149.32812 196.95898 C 149.96877 196.47963 150.53854 195.91023 151.01758 195.26953 C 151.65919 194.78965 152.22941 194.21979 152.70898 193.57812 C 153.34025 193.10362 153.90514 192.54374 154.37891 191.91211 C 155.00659 191.43976 155.56523 190.8798 156.03711 190.25195 C 156.65669 189.78445 157.2102 189.23458 157.67773 188.61523 C 158.29506 188.14926 158.8461 187.59922 159.3125 186.98242 C 159.92508 186.51862 160.47201 185.97196 160.93555 185.35938 C 161.53981 184.90016 162.08025 184.36217 162.53906 183.75781 C 163.13925 183.30096 163.67628 182.76624 164.13281 182.16602 C 164.72707 181.7126 165.25775 181.18211 165.71094 180.58789 C 166.29998 180.13755 166.8271 179.61234 167.27734 179.02344 C 167.86256 178.57496 168.38803 178.05224 168.83594 177.4668 C 169.41173 177.02385 169.92859 176.50952 170.37109 175.93359 C 170.94371 175.49289 171.45762 174.98051 171.89844 174.4082 C 172.46578 173.97052 172.97439 173.46163 173.41211 172.89453 C 173.9743 172.45976 174.47941 171.9566 174.91406 171.39453 C 175.46898 170.96427 175.96799 170.46666 176.39844 169.91211 C 176.94934 169.48443 177.4449 168.98977 177.87305 168.43945 C 178.41929 168.01439 178.91063 167.52239 179.33594 166.97656 C 179.87587 166.55519 180.36171 166.07086 180.7832 165.53125 C 181.31733 165.11359 181.79871 164.63317 182.2168 164.09961 C 182.74778 163.68363 183.22648 163.20449 183.64258 162.67383 C 184.16553 162.26263 184.63765 161.79227 185.04883 161.26953 C 185.56853 160.86025 186.03809 160.39261 186.44727 159.87305 C 186.96036 159.46775 187.42303 159.00522 187.82812 158.49219 C 188.3352 158.09079 188.79387 157.63377 189.19531 157.12695 C 189.69804 156.72838 190.15394 156.27576 190.55273 155.77344 C 191.04881 155.37914 191.49789 154.92912 191.89258 154.43359 C 192.38625 154.04069 192.83342 153.59481 193.22656 153.10156 C 193.71411 152.7121 194.15576 152.27078 194.54492 151.7832 C 195.02409 151.39923 195.45984 150.96532 195.84375 150.48633 C 196.32075 150.10382 196.75415 149.67204 197.13672 149.19531 C 197.60736 148.81676 198.03559 148.39041 198.41406 147.91992 C 198.87848 147.5455 199.30126 147.12428 199.67578 146.66016 C 200.13686 146.28786 200.55732 145.86901 200.92969 145.4082 C 201.38423 145.04002 201.79793 144.62629 202.16602 144.17188 C 202.61501 143.80747 203.02415 143.39986 203.38867 142.95117 C 203.83323 142.58975 204.23796 142.1844 204.59961 141.74023 C 205.03927 141.38191 205.4424 140.98237 205.80078 140.54297 C 206.23431 140.18863 206.63007 139.79272 206.98438 139.35938 C 207.4124 139.00885 207.8036 138.61908 208.1543 138.19141 C 208.57892 137.84307 208.968 137.45561 209.31641 137.03125 C 209.73275 136.68854 210.11415 136.30663 210.45703 135.89062 C 210.87171 135.54903 211.252 135.17021 211.59375 134.75586 C 212.00138 134.41884 212.37597 134.04619 212.71289 133.63867 C 213.11441 133.30592 213.48361 132.93644 213.81641 132.53516 C 214.21554 132.20391 214.58293 131.8385 214.91406 131.43945 C 215.30509 131.11367 215.6647 130.75433 215.99023 130.36328 C 216.37605 130.04142 216.73267 129.68823 217.05469 129.30273 C 217.43888 128.98185 217.79242 128.62817 218.11328 128.24414 C 218.48725 127.93049 218.83272 127.58659 219.14648 127.21289 C 219.51964 126.89992 219.86451 126.55636 220.17773 126.18359 C 220.54335 125.87583 220.88156 125.53721 221.18945 125.17188 C 221.55015 124.86782 221.88302 124.53595 222.1875 124.17578 C 222.5438 123.87496 222.8744 123.54511 223.17578 123.18945 C 223.52845 122.891 223.85556 122.56516 224.1543 122.21289 C 224.49946 121.91972 224.81995 121.59877 225.11328 121.25391 C 225.45427 120.96387 225.77019 120.64915 226.06055 120.30859 C 226.39605 120.02261 226.70969 119.71194 226.99609 119.37695 C 227.32836 119.09313 227.63787 118.78313 227.92188 118.45117 C 228.24629 118.17304 228.54791 117.87103 228.82617 117.54688 C 229.14834 117.27039 229.44996 116.9723 229.72656 116.65039 C 230.0412 116.37946 230.33246 116.08587 230.60352 115.77148 C 230.91456 115.5034 231.20422 115.2149 231.47266 114.9043 C 231.7799 114.63887 232.06841 114.35385 232.33398 114.04688 C 232.63271 113.7878 232.91268 113.50747 233.17188 113.20898 C 233.46864 112.95143 233.74812 112.67539 234.00586 112.37891 C 234.29798 112.12453 234.57201 111.85077 234.82617 111.55859 C 235.10884 111.31156 235.37406 111.04623 235.62109 110.76367 C 235.90381 110.51668 236.17089 110.25321 236.41797 109.9707 C 236.69321 109.72927 236.95202 109.47052 237.19336 109.19531 C 237.46383 108.9576 237.71935 108.70399 237.95703 108.43359 C 238.22101 108.20106 238.47044 107.95123 238.70312 107.6875 C 238.96564 107.45609 239.21376 107.20954 239.44531 106.94727 C 239.70116 106.72092 239.94359 106.48037 240.16992 106.22461 C 240.42064 106.00229 240.65854 105.76625 240.88086 105.51562 C 241.12541 105.29827 241.35869 105.0666 241.57617 104.82227 C 241.81883 104.60636 242.04964 104.37726 242.26562 104.13477 C 242.50168 103.92398 242.72678 103.70087 242.9375 103.46484 C 243.16885 103.25778 243.38875 103.03799 243.5957 102.80664 C 243.81965 102.60581 244.03135 102.39356 244.23242 102.16992 C 244.45159 101.97338 244.66014 101.76333 244.85742 101.54492 C 245.07214 101.35237 245.27501 101.1452 245.46875 100.93164 C 245.67898 100.74311 245.87821 100.54267 246.06836 100.33398 C 246.27379 100.14976 246.46802 99.951538 246.6543 99.748047 C 246.85527 99.567818 247.0439 99.374463 247.22656 99.175781 C 247.42273 98.999858 247.60641 98.810709 247.78516 98.617188 C 247.97721 98.444955 248.15666 98.259425 248.33203 98.070312 C 248.51894 97.902694 248.69215 97.720733 248.86328 97.537109 C 248.90547 97.49928 248.94296 97.456636 248.98438 97.417969 C 248.98716 97.414857 248.98941 97.411319 248.99219 97.408203 C 249.12701 97.281944 249.25858 97.152434 249.38477 97.017578 C 249.56268 96.858024 249.72697 96.685799 249.89062 96.511719 C 250.06416 96.356094 250.22478 96.187033 250.38477 96.017578 C 250.44041 95.967679 250.48868 95.910728 250.54297 95.859375 C 250.54297 95.859375 250.54492 95.857422 250.54492 95.857422 C 250.65448 95.753729 250.75948 95.646539 250.86328 95.537109 C 251.02756 95.389789 251.17987 95.230049 251.33203 95.070312 C 251.4914 94.927392 251.63717 94.771805 251.78516 94.617188 C 251.94017 94.478171 252.0823 94.325873 252.22656 94.175781 C 252.37678 94.041071 252.51417 93.893166 252.6543 93.748047 C 252.7333 93.677203 252.80264 93.597199 252.87891 93.523438 C 252.87986 93.522374 252.87991 93.520595 252.88086 93.519531 C 252.94416 93.458246 253.00702 93.397227 253.06836 93.333984 C 253.20897 93.207885 253.33695 93.06883 253.46875 92.933594 C 253.5571 92.854363 253.63578 92.764515 253.7207 92.681641 C 253.72193 92.680275 253.72339 92.679101 253.72461 92.677734 C 253.76934 92.63402 253.81368 92.589623 253.85742 92.544922 C 253.98912 92.426819 254.10844 92.296053 254.23242 92.169922 C 254.35932 92.056126 254.47401 91.929851 254.59375 91.808594 C 254.6958 91.717079 254.78731 91.613941 254.88477 91.517578 C 254.88598 91.516216 254.88745 91.515035 254.88867 91.513672 C 254.90632 91.496199 254.92587 91.476613 254.94336 91.458984 C 255.06134 91.353184 255.16749 91.235307 255.2793 91.123047 C 255.39058 91.023249 255.4899 90.912193 255.5957 90.806641 C 255.59693 90.805275 255.59839 90.804101 255.59961 90.802734 C 255.59961 90.802734 255.60156 90.800781 255.60156 90.800781 C 255.7101 90.703448 255.80683 90.594998 255.91016 90.492188 C 255.91736 90.485729 255.92251 90.477186 255.92969 90.470703 C 256.02158 90.378637 256.11758 90.291561 256.20508 90.195312 C 256.22154 90.18055 256.23561 90.163328 256.25195 90.148438 C 256.32954 90.070354 256.41384 89.995145 256.48828 89.914062 C 256.51431 89.890723 256.53677 89.863503 256.5625 89.839844 C 256.5625 89.839844 256.5625 89.837891 256.5625 89.837891 C 256.56494 89.835161 256.56788 89.832811 256.57031 89.830078 C 256.63241 89.767115 256.69775 89.707477 256.75781 89.642578 C 256.79279 89.611207 256.82297 89.574916 256.85742 89.542969 C 256.90937 89.490213 256.96509 89.440834 257.01562 89.386719 C 257.05987 89.347044 257.09723 89.300362 257.14062 89.259766 C 257.17932 89.220299 257.21991 89.182803 257.25781 89.142578 C 257.31131 89.094599 257.3579 89.039558 257.41016 88.990234 C 257.43557 88.964197 257.46321 88.940429 257.48828 88.914062 C 257.55129 88.857557 257.60669 88.792742 257.66797 88.734375 C 257.66797 88.734375 257.66992 88.732422 257.66992 88.732422 C 257.67209 88.729992 257.67361 88.727041 257.67578 88.724609 C 257.6854 88.714686 257.69551 88.705284 257.70508 88.695312 C 257.77676 88.631033 257.84073 88.558872 257.91016 88.492188 C 257.91016 88.492188 257.91016 88.490234 257.91016 88.490234 C 257.97251 88.425781 258.04132 88.367209 258.10156 88.300781 C 258.11565 88.288152 258.12663 88.272489 258.14062 88.259766 C 258.18535 88.213321 258.2337 88.170514 258.27734 88.123047 C 258.30547 88.097827 258.32964 88.068562 258.35742 88.042969 C 258.38515 88.014048 258.41605 87.988301 258.44336 87.958984 C 258.44645 87.956216 258.44809 87.951991 258.45117 87.949219 C 258.48786 87.912194 258.52651 87.877545 258.5625 87.839844 C 258.56467 87.837418 258.56619 87.834459 258.56836 87.832031 C 258.57631 87.823681 258.58583 87.816977 258.59375 87.808594 C 258.64245 87.764922 258.68475 87.714708 258.73242 87.669922 C 258.73962 87.663463 258.74477 87.654921 258.75195 87.648438 C 258.7859 87.612716 258.82411 87.581239 258.85742 87.544922 C 258.88314 87.521855 258.90425 87.494082 258.92969 87.470703 C 258.94203 87.457655 258.95649 87.446721 258.96875 87.433594 C 259.00373 87.402223 259.03391 87.365932 259.06836 87.333984 C 259.07796 87.325373 259.08614 87.315296 259.0957 87.306641 C 259.11433 87.286857 259.13391 87.268011 259.15234 87.248047 C 259.17738 87.225594 259.2018 87.19853 259.22656 87.175781 C 259.23274 87.170237 259.23993 87.161812 259.24609 87.15625 C 259.2587 87.142813 259.27264 87.130708 259.28516 87.117188 C 259.30128 87.102732 259.31407 87.084891 259.33008 87.070312 C 259.3414 87.060161 259.35202 87.049275 259.36328 87.039062 C 259.37013 87.032921 259.37598 87.023742 259.38281 87.017578 C 259.42705 86.977903 259.46637 86.933174 259.50977 86.892578 C 259.54551 86.854116 259.58609 86.820382 259.62109 86.78125 C 259.65522 86.744381 259.69507 86.709356 259.72852 86.671875 C 259.75281 86.645413 259.78074 86.622478 259.80469 86.595703 C 259.82776 86.570546 259.8542 86.548877 259.87695 86.523438 C 259.88068 86.519357 259.88495 86.515807 259.88867 86.511719 C 259.90405 86.495252 259.92225 86.481435 259.9375 86.464844 C 259.93994 86.462111 259.94287 86.457814 259.94531 86.455078 C 259.95706 86.442108 259.97075 86.431013 259.98242 86.417969 C 259.99291 86.406374 260.0052 86.396419 260.01562 86.384766 C 261.2571 85.006229 262.03906 83.212752 262.03906 81.232422 C 262.03906 78.143888 260.81712 76.134915 256.84961 73.246094 C 256.89166 73.200229 256.92353 73.148942 256.96289 73.101562 C 257.16655 72.934497 257.34377 72.752654 257.50391 72.560547 C 257.70301 72.396374 257.87791 72.219501 258.03516 72.03125 C 258.22648 71.872367 258.39453 71.700832 258.54688 71.519531 C 258.73687 71.361263 258.90523 71.190219 259.05664 71.009766 C 259.2381 70.856927 259.4011 70.694822 259.54688 70.521484 C 259.72301 70.372254 259.88115 70.213601 260.02344 70.044922 C 260.19192 69.901254 260.34516 69.749488 260.48242 69.587891 C 260.65015 69.444511 260.80275 69.292061 260.93945 69.130859 C 261.09843 68.993426 261.24429 68.84897 261.375 68.695312 C 261.52811 68.562267 261.67015 68.423577 261.79688 68.275391 C 261.94661 68.144794 262.08655 68.008423 262.21094 67.863281 C 262.35465 67.736862 262.48926 67.604798 262.60938 67.464844 C 262.74763 67.342431 262.8779 67.215115 262.99414 67.080078 C 263.12729 66.961418 263.25463 66.839446 263.36719 66.708984 C 263.49596 66.593391 263.61917 66.474384 263.72852 66.347656 C 263.85124 66.236581 263.97128 66.123242 264.07617 66.001953 C 264.19323 65.895166 264.30557 65.786091 264.40625 65.669922 C 264.51729 65.568029 264.62647 65.465863 264.72266 65.355469 C 264.83163 65.255099 264.9386 65.153517 265.0332 65.044922 C 265.1341 64.951038 265.2358 64.858837 265.32422 64.757812 C 265.42235 64.666102 265.51921 64.57311 265.60547 64.474609 C 265.69715 64.388215 265.78989 64.30332 265.87109 64.210938 C 265.95933 64.127379 266.04848 64.044217 266.12695 63.955078 C 266.20843 63.877211 266.29218 63.801429 266.36523 63.71875 C 266.44402 63.643085 266.52484 63.568472 266.5957 63.488281 C 266.66782 63.418381 266.74319 63.35108 266.80859 63.277344 C 266.87741 63.210318 266.94906 63.144758 267.01172 63.074219 C 267.07434 63.012661 267.13981 62.953173 267.19727 62.888672 C 267.25603 62.83059 267.31886 62.775535 267.37305 62.714844 C 267.42623 62.661881 267.4838 62.611762 267.5332 62.556641 C 267.58325 62.506561 267.63692 62.458253 267.68359 62.40625 C 267.72823 62.361222 267.77644 62.318057 267.81836 62.271484 C 267.85859 62.230622 267.9034 62.19252 267.94141 62.150391 C 267.97729 62.113664 268.01668 62.07876 268.05078 62.041016 C 268.08143 62.009394 268.1152 61.979637 268.14453 61.947266 C 268.17156 61.919227 268.20252 61.893861 268.22852 61.865234 C 268.25067 61.842081 268.27542 61.820427 268.29688 61.796875 C 268.31542 61.777386 268.33742 61.760004 268.35547 61.740234 C 268.36897 61.725914 268.38325 61.711736 268.39648 61.697266 C 268.39804 61.695601 268.40079 61.695027 268.40234 61.693359 C 268.40887 61.686464 268.41736 61.680758 268.42383 61.673828 C 268.42544 61.672076 268.42613 61.669723 268.42773 61.667969 C 268.72903 61.343936 268.96467 60.981842 269.12695 60.582031 C 271.19931 55.476381 270.75114 51.677729 267.74023 48.849609 C 266.42707 47.616159 265.27987 47.218925 263.16797 47.265625 C 259.42628 47.348385 256.80089 48.800701 251.29883 53.832031 C 248.77898 56.136291 245.75295 58.376024 244.57422 58.808594 C 242.53748 59.556024 242.42969 59.512286 242.42969 57.941406 C 242.42969 57.032296 243.96666 52.315814 245.84375 47.458984 C 248.93335 39.464864 249.18522 38.410204 248.5 36.333984 C 247.3933 32.980629 244.00482 31.113249 240.64453 31.048828 z "
       id="path7211" />
  </g>
  <g
     style="display:inline"
     inkscape:label="icon"
     id="layer2"
     inkscape:groupmode="layer">
    <path
       style="fill:#ffffff"
       d="m 224.51879,841.34352 c -2.06393,-0.50634 -5.04244,-3.62601 -5.65432,-5.92228 -0.6419,-2.40894 0.0689,-5.4362 1.69943,-7.23794 0.63652,-0.70335 3.30814,-2.68151 5.93692,-4.39593 6.34772,-4.13978 10.62379,-7.63475 10.19329,-8.3313 -0.75565,-1.22269 -5.65922,-1.41039 -10.07737,-0.38576 -7.91895,1.83653 -13.65517,1.01761 -14.93356,-2.13192 -2.07236,-5.10565 -1.62293,-8.90476 1.38798,-11.73288 1.31316,-1.23345 2.4598,-1.63074 4.57171,-1.58403 3.74169,0.0828 6.36734,1.53539 11.86938,6.56672 2.51986,2.30426 5.58707,4.55899 6.81604,5.0105 l 2.23448,0.82094 -0.40113,-3.38698 c -0.22063,-1.86286 -1.52031,-5.99268 -2.88817,-9.17741 -2.74317,-6.38674 -3.1227,-10.03861 -1.328,-12.77769 3.41836,-5.21707 12.59306,-3.94892 14.56053,2.0126 0.68522,2.07622 0.43363,3.12996 -2.65597,11.12408 -1.87709,4.85683 -3.41289,9.57443 -3.41289,10.48354 0,1.57088 0.10644,1.61389 2.14318,0.86646 1.17873,-0.43257 4.20487,-2.67178 6.72472,-4.97604 5.50206,-5.03133 8.1277,-6.48396 11.86939,-6.56672 2.1119,-0.0467 3.25855,0.35058 4.57171,1.58403 3.01091,2.82812 3.46034,6.62723 1.38798,11.73288 -1.27838,3.14953 -7.01462,3.96845 -14.93357,2.13192 -4.39403,-1.01905 -9.32088,-0.83826 -10.06726,0.36941 -0.48948,0.79198 3.53549,4.14672 9.78511,8.15566 6.38806,4.09779 8.12751,6.2366 8.12751,9.99351 0,5.25466 -5.49685,9.19913 -10.51267,7.54375 -3.36665,-1.11109 -5.31393,-4.46515 -7.39398,-12.73562 -0.96814,-3.84936 -2.25667,-7.75648 -2.86342,-8.68248 l -1.10317,-1.68365 -0.90656,1.73024 c -0.49862,0.95164 -1.69714,4.70662 -2.6634,8.34439 -1.96278,7.38955 -3.73112,11.33561 -5.49353,12.25895 -1.67152,0.87573 -4.99753,1.36983 -6.59039,0.97905 z"
       id="path7191"
       inkscape:connector-curvature="0"
       transform="translate(0,-752.36216)" />
  </g>
</svg>
